REM DIRINDEX 1\6,1\2\7,1\2\8,1\2\9,1\3\10,1\3\11,1\4\12,1\4\13,1\4\14,1\5\15,1\5\16,1\5\17
REM DIRNAME cjc040,folder01,folder02,folder03,folder04,folder05,folder06,folder07,folder08,folder09,folder10,folder11,folder12,folder13,folder14,folder15,folder16
TITLE ""
FILE "P2Q_t_0161-0178.mp3" MP3
  TRACK 01 AUDIO
    TITLE "10:cjc040_1971"
    INDEX 01 00:00:00
  TRACK 02 AUDIO
    TITLE "0:"
    INDEX 01 00:00:68
  TRACK 03 AUDIO
    TITLE "11:cjc040_1972"
    INDEX 01 00:01:50
  TRACK 04 AUDIO
    TITLE "0:"
    INDEX 01 00:04:13
  TRACK 05 AUDIO
    TITLE "10:cjc040_1973"
    INDEX 01 00:04:66
  TRACK 06 AUDIO
    TITLE "0:"
    INDEX 01 00:06:04
  TRACK 07 AUDIO
    TITLE "11:cjc040_1974"
    INDEX 01 00:06:67
  TRACK 08 AUDIO
    TITLE "0:"
    INDEX 01 00:09:18
  TRACK 09 AUDIO
    TITLE "10:cjc040_1975"
    INDEX 01 00:10:00
  TRACK 10 AUDIO
    TITLE "0:"
    INDEX 01 00:11:27
  TRACK 11 AUDIO
    TITLE "11:cjc040_1976"
    INDEX 01 00:12:07
  TRACK 12 AUDIO
    TITLE "0:"
    INDEX 01 00:13:22
  TRACK 13 AUDIO
    TITLE "10:cjc040_1977"
    INDEX 01 00:14:06
  TRACK 14 AUDIO
    TITLE "0:"
    INDEX 01 00:15:19
  TRACK 15 AUDIO
    TITLE "11:cjc040_1978"
    INDEX 01 00:16:02
  TRACK 16 AUDIO
    TITLE "0:"
    INDEX 01 00:18:21
  TRACK 17 AUDIO
    TITLE "10:cjc040_1979"
    INDEX 01 00:19:01
  TRACK 18 AUDIO
    TITLE "0:"
    INDEX 01 00:20:26
  TRACK 19 AUDIO
    TITLE "11:cjc040_1980"
    INDEX 01 00:21:06
  TRACK 20 AUDIO
    TITLE "0:"
    INDEX 01 00:22:21
  TRACK 21 AUDIO
    TITLE "10:cjc040_1981"
    INDEX 01 00:23:08
  TRACK 22 AUDIO
    TITLE "0:"
    INDEX 01 00:24:16
  TRACK 23 AUDIO
    TITLE "11:cjc040_1982"
    INDEX 01 00:24:69
  TRACK 24 AUDIO
    TITLE "0:"
    INDEX 01 00:28:53
  TRACK 25 AUDIO
    TITLE "10:cjc040_1983"
    INDEX 01 00:29:31
  TRACK 26 AUDIO
    TITLE "0:"
    INDEX 01 00:30:42
  TRACK 27 AUDIO
    TITLE "11:cjc040_1984"
    INDEX 01 00:31:26
  TRACK 28 AUDIO
    TITLE "0:"
    INDEX 01 00:33:58
  TRACK 29 AUDIO
    TITLE "10:cjc040_1985"
    INDEX 01 00:34:36
  TRACK 30 AUDIO
    TITLE "0:"
    INDEX 01 00:35:59
  TRACK 31 AUDIO
    TITLE "11:cjc040_1986"
    INDEX 01 00:36:44
  TRACK 32 AUDIO
    TITLE "0:"
    INDEX 01 00:39:05
  TRACK 33 AUDIO
    TITLE "10:cjc040_1987"
    INDEX 01 00:39:56
  TRACK 34 AUDIO
    TITLE "0:"
    INDEX 01 00:41:18
  TRACK 35 AUDIO
    TITLE "11:cjc040_1988"
    INDEX 01 00:41:71
  TRACK 36 AUDIO
    TITLE "0:"
    INDEX 01 00:44:26
  TRACK 37 AUDIO
    TITLE "10:cjc040_1989"
    INDEX 01 00:45:08
  TRACK 38 AUDIO
    TITLE "0:"
    INDEX 01 00:46:47
  TRACK 39 AUDIO
    TITLE "11:cjc040_1990"
    INDEX 01 00:47:28
  TRACK 40 AUDIO
    TITLE "0:"
    INDEX 01 00:48:44
  TRACK 41 AUDIO
    TITLE "10:cjc040_1991"
    INDEX 01 00:49:18
  TRACK 42 AUDIO
    TITLE "0:"
    INDEX 01 00:50:39
  TRACK 43 AUDIO
    TITLE "11:cjc040_1992"
    INDEX 01 00:51:22
  TRACK 44 AUDIO
    TITLE "0:"
    INDEX 01 00:52:51
  TRACK 45 AUDIO
    TITLE "10:cjc040_1993"
    INDEX 01 00:53:27
  TRACK 46 AUDIO
    TITLE "0:"
    INDEX 01 00:54:27
  TRACK 47 AUDIO
    TITLE "11:cjc040_1994"
    INDEX 01 00:55:08
  TRACK 48 AUDIO
    TITLE "0:"
    INDEX 01 00:58:44
  TRACK 49 AUDIO
    TITLE "10:cjc040_1995"
    INDEX 01 00:59:22
  TRACK 50 AUDIO
    TITLE "0:"
    INDEX 01 01:00:37
  TRACK 51 AUDIO
    TITLE "11:cjc040_1996"
    INDEX 01 01:01:19
  TRACK 52 AUDIO
    TITLE "0:"
    INDEX 01 01:02:36
  TRACK 53 AUDIO
    TITLE "10:cjc040_1997"
    INDEX 01 01:03:18
  TRACK 54 AUDIO
    TITLE "0:"
    INDEX 01 01:04:35
  TRACK 55 AUDIO
    TITLE "11:cjc040_1998"
    INDEX 01 01:05:15
  TRACK 56 AUDIO
    TITLE "0:"
    INDEX 01 01:08:35
  TRACK 57 AUDIO
    TITLE "10:cjc040_1999"
    INDEX 01 01:09:12
  TRACK 58 AUDIO
    TITLE "0:"
    INDEX 01 01:10:22
  TRACK 59 AUDIO
    TITLE "11:cjc040_2000"
    INDEX 01 01:11:05
  TRACK 60 AUDIO
    TITLE "0:"
    INDEX 01 01:11:74
  TRACK 61 AUDIO
    TITLE "10:cjc040_2001"
    INDEX 01 01:12:56
  TRACK 62 AUDIO
    TITLE "0:"
    INDEX 01 01:13:53
  TRACK 63 AUDIO
    TITLE "11:cjc040_2002"
    INDEX 01 01:14:35
  TRACK 64 AUDIO
    TITLE "0:"
    INDEX 01 01:15:25
  TRACK 65 AUDIO
    TITLE "10:cjc040_2003"
    INDEX 01 01:16:01
  TRACK 66 AUDIO
    TITLE "0:"
    INDEX 01 01:17:32
  TRACK 67 AUDIO
    TITLE "11:cjc040_2004"
    INDEX 01 01:18:06
  TRACK 68 AUDIO
    TITLE "0:"
    INDEX 01 01:20:30
  TRACK 69 AUDIO
    TITLE "10:cjc040_2005"
    INDEX 01 01:21:12
  TRACK 70 AUDIO
    TITLE "0:"
    INDEX 01 01:22:54
  TRACK 71 AUDIO
    TITLE "11:cjc040_2006"
    INDEX 01 01:23:32
  TRACK 72 AUDIO
    TITLE "0:"
    INDEX 01 01:25:68
